<svg xmlns="http://www.w3.org/2000/svg" xmlns:xlink="http://www.w3.org/1999/xlink" width="101" height="80" viewBox="0 0 101 80">
    <defs>
        <path id="a" d="M22.964 2.098l3.15 1.378C21.064 5.07 18 7.165 18 9.459c0 4.998 14.55 9.05 32.5 9.05S83 14.456 83 9.458c0-2.296-3.07-4.393-8.13-5.988L77.705 2C85.872 4.4 91 7.867 91 11.721c0 7.247-18.132 13.122-40.5 13.122S10 18.968 10 11.721c0-3.802 4.99-7.226 12.964-9.623z"/>
    </defs>
    <g fill="none" fill-rule="evenodd">
        <g fill="#0039A6" transform="translate(0 45)">
            <path d="M19.873.921l3.204 1.382C15.037 4.698 10 8.133 10 11.949c0 7.239 18.132 13.107 40.5 13.107S91 19.188 91 11.95c0-3.866-5.17-7.34-13.395-9.74L80.453.731C92.916 4.188 101 9.747 101 16.017 101 26.5 78.39 35 50.5 35S0 26.5 0 16.017C0 9.86 7.793 4.39 19.873.92z"/>
            <use opacity=".465" xlink:href="#a"/>
        </g>
        <path fill="#9F7607" fill-rule="nonzero" d="M76.541 17.293c-1.424 1.017-2.848 1.831-4.272 2.441v-.406h-.203-.204c.814-.407 1.424-.814 2.238-1.425a6.192 6.192 0 0 0 1.628-1.627v-.204h-.204c-.61.204-1.424.61-2.034 1.018-.814.61-1.628 1.22-2.442 2.034-.407 0-.61 0-1.017.204 1.017-1.221 2.645-2.849 4.68-4.273 2.034-1.424 3.458-1.627 4.068-1.627h.204c.203.203-.204 2.238-2.442 3.865m-5.9.407c.407-.61.407-1.22.61-1.831 1.832-1.628 2.849-3.255 3.052-5.086-.813 1.627-2.034 2.848-3.051 4.272v-.203c0-.407-.204-.61-.407-1.018 2.848-3.865 4.069-6.917 4.272-7.324.814.407 1.22 1.221 1.424 2.238.204 1.628-.407 3.662-1.627 5.086A24.464 24.464 0 0 1 70.64 17.7m-.813-8.341c0 .407.203.813.406 1.017.204.407.407.61.204 1.017-.204-.407-.407-.61-.814-.814-.203-.203-.407-.203-.61-.407.203.407.203.814.203 1.221 0 .61-.203 1.017-.814 1.424.204-.407.204-.61.204-1.017 0-.407-.204-.61-.204-.814-.203-.203-.406-.61-.406-1.22 0-.407.203-1.018.406-1.425.204-.407.407-.813.407-1.424v-.203c1.018 0 1.628.407 1.628.407l.203.203c0 .407-.203.814-.407 1.22-.203.204-.406.408-.406.815m-3.662-3.662c-.61-.407-1.018-.61-1.832-.61h-.61c.204-.204.61-.204 1.017-.408.204 0 .407-.203.61-.407.204-.203.408-.203.611-.203.61 0 1.017.407 1.424 1.017.407.407.814 1.017 1.628 1.017 1.017.204 1.424.61 1.627.814-.203-.203-1.017-.407-2.034-.407s-1.831-.407-2.441-.813m-1.221-.204c-.204.204-.204.61-.204 1.017 0 .407.204 1.018.407 1.424.204.407.407 1.018.407 1.628 0 1.017-.61 1.831-1.83 2.238-.611.203-1.222.407-1.628.407.61-.204 2.237-1.22 2.237-2.441 0-.407-.203-1.018-.61-1.628-.203-.61-.61-1.22-.61-1.831 0-.204 0-.407.203-.61.407-.204.814-.204 1.017-.204h.61M59.86 15.26a7.316 7.316 0 0 0 1.627-2.442s.204 0 .204.204c0 .203.203.203 0 .407 0 .61-1.018 1.424-1.831 1.83m.61-4.068h-.814l.61-3.256c.814.204 1.425.61 1.425 1.221 0 .814-.61 2.035-.814 2.238-.204-.203-.407-.203-.407-.203M58.638 8.34c0-.61.407-.61.61-.61.204 0 .61.203.61.61s-.406 2.035-.61 2.645c-.203-.61-.61-2.238-.61-2.645m1.017-1.424a.438.438 0 0 1-.407.407.438.438 0 0 1-.407-.407c0-.203.204-.407.407-.407.204 0 .407.204.407.407m-.203-.61H59.045l.203-.407-.407.203v-.406l.407.203-.203-.407H59.452l-.204.407.407-.203v.406l-.407-.203c0 .203.204.407.204.407m-1.628 4.883s-.203 0-.407.203c-.203-.203-.814-1.424-.814-2.238 0-.814.61-1.017 1.425-1.22l.61 3.255c-.204-.204-.407 0-.814 0m-5.29-2.238c-.406 0-.813-.204-1.22-.204l1.017-4.882c1.22.203 2.238.813 2.238 1.83 0 1.221-1.22 3.46-1.22 3.46-.408-.204-.611-.204-.815-.204M49.89 4.679c0-.813.407-1.017.813-1.017.407 0 .814.204.814 1.017 0 .61-.61 3.255-.814 4.07-.203-1.018-.813-3.46-.813-4.07m1.424-2.034c0 .407-.204.61-.61.61-.407 0-.61-.203-.61-.61s.203-.61.61-.61c.406 0 .61.203.61.61m-.204-1.017h-.813l.203-.61c-.203 0-.61.203-.61.203V.407s.407.203.61.203c0-.203-.203-.61-.203-.61h.813l-.203.61c.203 0 .61-.203.61-.203v.814l-.61-.204c0 .204.203.61.203.61m-2.238 7.325c-.203 0-.406 0-.61.203 0 0-1.22-2.238-1.22-3.458 0-1.018 1.017-1.628 2.237-1.831l1.018 4.882c-.61 0-1.221 0-1.425.204M43.38 11.19h-.813l.61-3.256c.814.204 1.424.61 1.424 1.221 0 .814-.61 2.035-.814 2.238 0-.203-.203-.203-.407-.203M41.55 8.34c0-.61.406-.61.61-.61.203 0 .61.203.61.61s-.407 2.035-.61 2.645c-.204-.61-.61-2.238-.61-2.645m1.017-1.424a.438.438 0 0 1-.407.407.438.438 0 0 1-.407-.407c0-.203.203-.407.407-.407.203 0 .407.204.407.407m-.204-.61H41.955l.204-.407-.407.203v-.406l.407.203-.204-.407H42.362l-.203.407.407-.203v.406l-.407-.203c.203.203.203.407.203.407m-1.424 4.883s-.204 0-.407.203c-.203-.203-.814-1.424-.814-2.238 0-.814.61-1.017 1.424-1.22l.61 3.255c-.203-.204-.61 0-.813 0m.407 4.069c-.814-.407-1.628-1.221-1.831-2.035v-.407l.203-.203c.61 1.22 1.22 2.034 1.628 2.645m-1.831-3.256c-.407 0-1.017-.203-1.628-.406-1.22-.407-1.83-1.221-1.83-2.238 0-.61.203-1.018.406-1.628.204-.407.407-1.017.407-1.424 0-.204 0-.61-.203-1.017.203 0 .406-.204.61-.204.203 0 .61 0 1.017.204 0 .203.204.407.204.61 0 .61-.204 1.22-.61 1.831-.204.61-.611 1.22-.611 1.628-.204 1.424 1.424 2.441 2.238 2.644M35.24 5.697c-.61.406-1.22.813-2.441.813-1.017 0-1.628.204-2.034.407.203-.203.61-.61 1.627-.814.61-.203 1.017-.61 1.628-1.017.407-.407.813-1.017 1.424-1.017.203 0 .407.203.61.203.204.204.407.204.61.407.61.204.814.407 1.018.407h-.61c-.814 0-1.425.407-1.832.61m-4.679 1.628c.204-.203.814-.407 1.831-.61v.203c0 .407.204 1.017.407 1.424.203.407.407.814.407 1.425 0 .61-.204.813-.407 1.22-.203.204-.203.61-.203.814 0 .203 0 .61.203 1.017-.61-.407-.814-.814-.814-1.424 0-.407 0-.814.204-1.22-.204.203-.407.406-.61.406-.408.204-.611.407-.814.814-.204-.407 0-.814.203-1.017.203-.204.407-.61.407-1.017 0-.204-.204-.61-.407-.814 0-.407-.407-.814-.407-1.22m-.407 7.73c-1.017-1.22-2.034-2.645-3.052-4.272 0 1.83 1.018 3.458 3.052 5.086 0 .61.204 1.22.61 1.831-1.424-1.017-2.848-2.441-4.068-3.866-1.221-1.424-2.035-3.458-1.628-5.086.203-1.017.61-1.83 1.424-2.238.204.407 1.424 3.459 4.273 7.324-.204.204-.204.61-.407 1.018-.204 0-.204.203-.204.203m1.22 4.273c-.406 0-.61-.204-1.016-.204-.814-.814-1.628-1.424-2.442-2.034-.61-.407-1.424-.814-2.034-1.018h-.204a6.192 6.192 0 0 0 1.628 1.628c.814.61 1.424 1.017 2.238 1.424H29.138V19.531c-1.424-.61-2.848-1.424-4.272-2.441-2.442-1.628-2.645-3.662-2.645-4.07h.203c.61 0 2.238.204 4.07 1.628 2.44 1.831 4.068 3.459 4.882 4.68m-5.493-.407c1.22.407 2.441.813 3.662 1.424.203.407.407.814.61 1.017-.814-.407-1.83-.814-2.645-1.017-.813-.204-1.627-.407-2.238-.407h-.203c.61.407 1.22.814 2.034 1.017 1.221.407 2.442.61 3.46.814.203.203.406.203.61.407.203.203.406.203.61.203h-.61c-1.221 0-3.46-.203-6.104-1.017-2.645-.814-3.459-2.645-3.662-2.848.203 0 .814-.407 2.034-.407.814.407 1.628.407 2.442.814m-.204 3.458c1.018.204 2.442.407 3.662.814-.203.204-.407.204-.61.407l-.203.203v.204c-.407 0-.814-.204-1.221-.204H26.29h-1.424.203c.61.407 1.22.61 2.034.61.61 0 1.221.204 1.831.204.407.407.814.61 1.425.814H28.73c-1.424 0-2.645 0-3.865-.203-2.645-.204-3.663-1.831-3.866-2.035.203-.203 1.22-.814 3.255-.814h1.424m1.221 3.255c1.017 0 2.645 0 3.866.204-.61.203-1.018.61-1.221.814H27.918c-.611 0-1.221.203-1.628.407h-.204.204c.407.203 1.017.203 1.627.203h1.221l.203.204s.407.203.814.61c-1.22.203-2.441.407-3.662.407h-.203c-2.238 0-3.459-1.22-3.662-1.424.203-.204 1.424-1.221 3.865-1.425h.407m.203 3.256c1.018-.204 2.238-.407 3.46-.61.406.203.813.203 1.423.203h.814c-.203 0-.203.203-.407.203a40.1 40.1 0 0 0-3.052.61c-.61.204-1.22.407-1.83.814h.203c.407 0 1.424-.203 2.034-.203a25.614 25.614 0 0 0 2.035-.61c-.407.406-.61.813-.814 1.22-.814.407-1.831.814-2.848 1.017-.61.204-1.018.204-1.628.204-1.424 0-2.238-.407-2.238-.61-.203-.407.61-1.628 2.848-2.238m1.831 2.644c.61-.203 1.018-.61 1.628-.813v.203h.204s.203 0 .406.204h.204c-.204.203-.61.203-.814.406-.61.204-1.017.61-1.22 1.018h.203c.61 0 1.017-.204 1.627-.61.407-.204 1.018-.611 1.425-.814.61 0 1.017-.204 1.627-.407-.814.813-2.034 1.83-3.865 2.848-.204 0-.204.203-.407.203.203.204.407.407.203.61l.407.815c0-.204 0-.407-.203-.61 0 .203 0 .406.203.61.204-.407.61-1.018 1.017-1.628.61-.814 1.424-1.424 2.238-2.035-.203.407-.203.814-.203 1.221l-.407.407c-.407.407-.61.814-.814 1.22v.204h.204c.406-.203.813-.61 1.22-1.017l.204-.203h.203c.204 0 .61 0 1.017-.204-.407.61-1.017 1.424-1.627 2.035-.814.813-1.628 1.22-2.238 1.424l2.441 5.29c.407.203.407.406.407.813 0 0 .204 0 .204.204-.204 0-.204.203-.204.406.204.204.61.204.61 1.018.407.203.407.61.204 1.017l.407.407c.203-.204.407-.204.61 0 .407-.407 1.017-.204 1.22.407.204.814 1.222 1.017 1.628 1.017.61 0 1.831-.61 2.442-.814.407-.203.61-.407.814-.407.203 0 .61-.203 1.017-.407.203-.203.814-.61.814-.813.203.407.813 1.017 1.017 1.22.203.407.407.61.61 1.018 0 .203 0 .203-.203.406-.407.407-1.22.204-1.831.204h-1.424c-1.425 0-2.442.814-3.662 1.424-.204.203-.814.407-1.221.814 0 .203.203.407.203.61.204.204.407.61.204.814 0 .203.203.407 0 .61.203.204 0 .61-.204.61-.203 0-.61 0-.61-.203-.407 0-.407-.203-.61-.407-.61-.203-.814-.61-.407-1.017l-.814-.407c-.204 0-.814-.203-.814-.61-.61 0-1.017-.407-.814-1.017-.203 0-.407-.204-.407-.61 0-.611.407-1.018.61-1.221 0-.204-.203-.814-.203-1.018-.407-.203-.61-.407-.407-.813-.406-.407-.203-1.018-.203-1.221 0-.204-.203-.204-.407-.204 0-.203 0-.203.204-.407-.204-.203-.407-.406-.204-.813l-2.238-5.697-.814-1.83c-.407-.204-.407-.204-.407-.611 0 0-.203 0-.203-.204-.407 0-.61.204-1.017.204-.61 0-1.017-.204-1.22-.204 0-.203.61-1.627 2.44-2.645m12.614 19.328c-.407-.407-.61-.814-.407-1.628.204-.61 1.018-1.017 1.425-.813-.61.61-.204 1.22.406 1.22.814 0 1.425-1.017 2.442-1.424.814-.407 1.424-.61 2.034-.814 0 0 1.018-.406 1.628-.813.407-.204.814-.814.814-.814s0 .407.407.814c0 .203.203.203.203.407-.203 1.017-.61 2.44-1.22 3.662-.408 1.017-1.221 3.458 0 4.272-.204-1.017.203-3.052.406-4.476.204-.814.814-2.441.814-3.458.203.203.407.203.407.203s.203-.203.61-.407c-.203 1.017.407 2.848.814 3.662.407 1.424.61 3.459.407 4.476 1.22-.61.61-3.052 0-4.272a20.499 20.499 0 0 1-1.22-3.866s0-.203.203-.203l.407-.814.813.814c.407.407 1.628.813 1.628.813l-.407-.406c.814.61 1.628.61 2.441 1.22 1.018.61 1.628 1.424 2.442 1.424.61 0 .814-.61.407-1.22.61-.204 1.22.407 1.424.813.203.814 0 1.425-.407 1.628.61.407 1.22 1.017.814 2.035-.204.813-1.017.813-.814 1.83-.407-.203-.814-.406-.814-.813 0-.407-.203-.61-.203-.814 0 .61-.204 1.628-1.221 2.034-.61.204-1.424.407-2.238-.406-.203.813-1.22 1.424-2.238 1.424-.407 0-.814-.204-1.22-.407-.204.61-.814 1.22-1.425 1.424-.61-.203-1.22-.814-1.424-1.424-.407.203-.814.407-1.22.407-1.018 0-2.035-.61-2.238-1.424-.61.813-1.628.61-2.238.406-.814-.406-1.221-1.424-1.221-2.034-.203.203-.203.407-.203.814-.204.407-.407.814-.814.814.407-1.018-.407-1.018-.814-1.831-.61-1.018-.204-1.831.61-2.035m14.038 2.035c.814 0 1.22-.407.814-1.018-.203.204-.61.407-1.017.407.203.407.203.407.203.61m-1.83-4.068c.61.813 1.016 1.22 1.22 2.238.61 0 .61-.814.407-1.221-.407-.814-2.238-1.831-3.052-2.848.407.61.814 1.22 1.424 1.83m-7.527 2.239c.406-1.018.813-1.425 1.424-2.238.407-.61 1.017-1.221 1.424-1.831-.814 1.017-2.645 2.034-3.052 2.848-.407.407-.407 1.017.204 1.22m-.61 1.832v-.61c-.408 0-.611-.204-.815-.408-.406.61 0 1.018.814 1.018M56.4 47.2c-.203-.407.407-.407.407-1.424v-.204h-.204c.204-.203.61-.61.814-1.017l.814.814a9.58 9.58 0 0 0 1.017.407l-.203-.407s-.61-.203-1.017-.407c-.407-.203-.814-.61-.814-.61.203-.814-.204-1.628-.204-1.628s.407-.407.407-1.22c.204.203.61.61.814 1.22-.203 0-.203-.203-.203-.203l.406.407h.204c.407 1.017.407 2.238.407 2.238 0 .203 0 .406.203.61.407.407 1.018.61 1.424.814 1.018.407 2.238.813 3.256.61.203 0 .813-.203.813-.814 0-.203-.203-.407-.203-.407-.204 0-.204 0-.204-.203.61 0 2.035-.204 3.46-.204 1.22 0 2.44.204 3.458.204 0 .203-.204.203-.204.203-.203.61-.61 1.221-1.22 1.628 0 .203 0 .407-.204.61-.203.204-.61.204-1.017.407-.204.204-.407.407-.61.407-.407.203-.814 0-1.221 0-.61.203-.61.407-1.017.407-.407 0-.407-.204-1.018-.407-.407-.203-1.017-.61-1.424-.814-.814-.407-1.627-.407-2.441-.407-.814-.203-1.424-.407-2.238-.61-.204.203-1.831.203-2.238 0m14.648-2.034c0-.204.204-.407.407-.407.204 0 .407.203.407.407a.438.438 0 0 1-.407.406.438.438 0 0 1-.407-.406m-3.662-14.242c.61.204 1.017.407 1.628.407.407.203 1.017.61 1.424.814.61.203 1.017.407 1.628.61h.203c-.407-.407-.814-.61-1.22-1.017-.204-.204-.611-.204-.815-.407h.204c.203 0 .407-.203.407-.203h.203v-.204c.61.204 1.221.61 1.628.814 1.83 1.017 2.441 2.441 2.441 2.645-.203 0-.61.203-1.22.203-.814 0-1.628-.203-2.442-.61-2.034-1.22-3.255-2.442-4.069-3.052m3.255-.61c-.203-.204-.407-.814-.813-1.22.61.203 1.22.406 2.034.61.61.203 1.424.203 1.831.203h.204c-.61-.407-1.221-.61-1.831-.814-.814-.203-2.035-.407-3.052-.61-.204 0-.204-.204-.407-.204h.814c.407 0 1.017 0 1.424-.203 1.22.203 2.238.407 3.458.61 2.238.61 3.052 1.831 3.256 2.035-.204.203-1.018.61-2.238.61-.61 0-1.018 0-1.628-.203-1.22-.204-2.238-.407-3.052-.814m4.476-2.035c-1.22 0-2.645-.203-3.662-.407.407-.203.61-.406.814-.61l.203-.203h1.221c.61 0 1.017 0 1.628-.204h.203-.203c-.407-.203-1.018-.203-1.628-.407H72.066c-.204-.203-.61-.61-1.221-.814 1.22-.203 2.848-.203 3.865-.203h.814c2.442 0 3.662 1.22 3.866 1.424-.204.204-1.424 1.424-3.662 1.424h-.61m-2.849-2.848h-1.628c.61-.203 1.018-.61 1.425-.814.61 0 1.22 0 1.83-.203.814 0 1.425-.407 2.035-.61h.203-1.22H73.693c-.407 0-.814.203-1.22.203v-.204l-.204-.203s-.203-.203-.61-.407c1.424-.407 2.644-.61 3.662-.814h1.017c1.831 0 3.052.61 3.255.814-.203.204-1.22 1.628-3.865 2.035-1.018 0-2.238.203-3.459.203m3.255-6.51c.814-.204 1.628-.407 2.442-.407 1.22 0 1.83.203 2.034.407-.203.203-1.017 2.034-3.662 2.848-2.645.814-4.883 1.017-6.104 1.017h-.61c.204 0 .407-.203.61-.203.204-.204.407-.204.61-.407 1.222-.204 2.239-.407 3.46-.814.813-.203 1.424-.61 2.034-1.017h-.204c-.813 0-1.424.203-2.237.407-.814.203-1.831.61-2.645 1.017.203-.407.61-.61.61-1.017 1.22-1.018 2.441-1.424 3.662-1.831m-3.662.61c0 .203-.407 1.628-2.034 2.645-.814.407-1.628 1.017-2.645 1.22v-.203l-.407-.407c.61-.203 1.22-.61 1.83-1.017.408-.203.815-.61 1.018-1.017-.407 0-.814.203-1.22.407l-1.832 1.22h-.203c-.203 0-.407-.203-.61-.203l3.051-2.442c.814-.61 1.831-.61 2.238-.61.407.407.61.407.814.407M67.59 17.09c1.424-1.424 2.441-3.052 2.441-3.459.203.203.61.61.61 1.22.204.611.204 2.239-1.22 3.866-.814.814-1.628 1.628-2.645 2.238.407-.407.61-1.017.61-1.627.204-.204.61-.407.814-.61.814-.815 1.017-1.832 1.22-2.239v-.203.203c-.61.61-1.22 1.424-1.83 1.831h-.204c0-.407-.203-.61-.407-.813.204 0 .407-.204.61-.407m-1.22.203c.203.204.814.61.814 1.831 0 .814-.407 1.424-1.017 2.238-.61.61-1.221 1.22-2.035 1.628.407-.204.61-.204 1.017-.204.204 0 .61 0 .814.204.407.203.814.407.814.61s0 .61-.204 1.017c-.203.407-.813.814-1.424 1.017h.204c.814 0 1.22.204 1.424.61.407.408.61.815.61.815s-.203.407-.61.813c-.204.204-.61.204-1.017.204h-.61c.61.203 1.017.814 1.017 1.22.203.407 0 .814 0 1.018-.204.203-.61.203-1.018.203-.407 0-.814-.203-1.424-.61.407.61.407 1.017.204 1.627-.204.407-.407.61-.407.814-.204 0-.407 0-.814-.203-.407-.204-.814-.61-1.017-1.22 0 .61 0 1.22-.407 1.423-.204.407-.61.61-.61.61s-.407-.203-.61-.61c-.204-.203-.408-.814-.408-1.424-.203.61-.61 1.017-.814 1.22-.407.204-.813.408-1.017.408v-4.883H58.231c.407.814 1.424 1.424 2.645 1.424 1.424 0 3.052-.814 3.052-2.441 0-1.018-.407-1.831-.61-2.442-.204-.407-.408-.813-.408-1.22 0-1.221.814-1.831 1.831-2.442.204-1.017 1.221-1.83 1.628-3.255m-3.459.61c-.407 0-1.22-.203-1.424-.406-.203-.407-.407-.61-.61-.814h.203c.407 0 .814.203 1.221.203.407.204.814.407 1.424.407.407 0 .814-.203 1.22-.407-.203.204-.61 1.017-2.034 1.017m-.813-4.475h.406c.814 0 1.831.406 1.831 1.424 0 .407-.203 1.22-.813 1.424-.204-.204-.61-.61-1.628-.61-.61 0-1.22.203-1.83.61-.204 0-.611-.204-.815-.204h-.203c1.017-.406 2.645-1.424 3.052-2.644m.813 1.83c.204 0 .204-.203.204-.203l-.204-.203c-.203 0-.203.203-.203.203s0 .204.203.204m-5.696-3.052c-.814 0-3.255 0-5.086-1.628h.406c.204 0 .61-.203.814-.407 1.831 1.425 3.255 1.831 3.866 2.035m-6.51-2.848c1.424 0 2.644.203 2.644.61s-1.22.61-2.645.61c-1.424 0-2.644-.203-2.644-.61 0-.61 1.22-.61 2.644-.61m-1.83 1.22h.406c-1.83 1.628-4.272 1.628-5.086 1.628.61-.204 1.831-.61 3.866-2.035.203.204.61.204.813.407m-9.969 2.849h.407c.407 1.22 2.035 2.034 3.052 2.644h-.203c-.204 0-.61 0-.814.204-.61-.407-1.22-.61-1.831-.61-1.017 0-1.628.61-1.628.61-.61-.204-.814-1.017-.814-1.424 0-1.018.814-1.424 1.831-1.424m-.406 1.83c.203 0 .203-.203.203-.203l-.203-.203c-.204 0-.204.203-.204.203s0 .204.204.204m.61 1.627c.407-.203.814-.203 1.22-.203h.204c-.203.203-.61.61-.61.814-.204.203-1.018.406-1.424.406-1.425 0-1.831-.813-2.035-1.22.407.407.814.407 1.22.407.611.203 1.018 0 1.425-.204m-4.273.407c.407 1.424 1.628 2.238 2.442 2.848 1.017.814 1.83 1.425 1.83 2.442 0 .407-.203.814-.406 1.22-.203.61-.61 1.425-.61 2.442 0 1.627 1.424 2.441 3.051 2.441 1.221 0 2.238-.407 2.645-1.424H44.193v4.883c-.203 0-.61-.204-1.017-.407-.204-.204-.61-.61-.814-1.22 0 .813-.203 1.22-.407 1.423-.203.407-.61.407-.61.61 0 0-.407-.203-.61-.61-.204-.407-.407-1.017-.407-1.424-.204.61-.61 1.017-1.018 1.22-.407.204-.61.204-.813.204 0-.203-.407-.407-.407-.813-.204-.407 0-1.018.203-1.628-.61.61-1.017.61-1.424.61-.407 0-.61 0-1.017-.203 0-.204-.204-.61 0-1.017.203-.407.61-1.018 1.017-1.221h-.61c-.407 0-.814-.203-1.018-.203-.407-.204-.61-.61-.61-.814 0 0 .203-.407.61-.814.204-.204.814-.61 1.425-.61h.203c-.61-.204-1.22-.61-1.424-1.018-.204-.407-.204-.813-.204-1.017 0 0 .407-.407.814-.61.204 0 .407-.204.814-.204s.61 0 1.017.204c-.814-.407-1.627-1.017-2.034-1.628-.61-.61-1.018-1.424-1.018-2.238-.813-.814 0-1.22 0-1.424m-4.272-2.441c.204-.61.407-1.018.61-1.221.204.203 1.018 1.831 2.442 3.459l.407.407c-.204.203-.407.61-.407.813h-.204l-1.83-1.83v-.204.203c0 .61.203 1.424 1.22 2.238.203.204.407.407.814.61 0 .61.203 1.018.61 1.628-1.017-.61-1.83-1.424-2.645-2.238-1.22-1.627-1.017-3.255-1.017-3.865m-1.017 4.679h.814c.61 0 1.424.203 2.238.61 1.017.61 2.034 1.425 3.051 2.442-.203 0-.407 0-.61.203h-.204c-.61-.407-1.22-1.017-1.83-1.22-.407-.204-.814-.407-1.221-.407.203.407.61.61 1.017 1.017.61.407 1.22.61 1.831 1.017-.203.204-.407.204-.407.407v.203c-1.017-.406-1.83-.813-2.645-1.22-1.627-1.424-2.034-2.849-2.034-3.052m-.407 4.069c.203-.203 1.017-.61 2.238-.61h.814c.61.203 1.424.407 2.034.61 0 .203.204.407.204.814 0 0 0 .203.203.203l-1.831-.61h-1.424c.407.203.814.407 1.22.407.61.203 1.425.203 2.238.203l.407.407c-.203 0-.61.204-.813.407-1.018 0-2.035 0-2.849-.203-1.627-.204-2.441-1.425-2.441-1.628m2.848 4.476c-1.424 0-2.441-.814-2.645-1.017.204-.204 1.221-1.221 2.849-1.425h2.034c-.203.204-.407.61-.61.814H32.8c-.407 0-.814.204-1.22.407h.203c.407 0 .61.204 1.017.204h1.017c.204.203.204.407.61.61-.813.203-1.424.203-2.237.407h-.204m.204 2.848c-.61 0-1.018-.203-1.221-.203 0-.204.61-1.424 2.034-2.035l1.831-.61c.204 0 .407.203.61.203-.203.204-.406.407-.406.61-.407.204-1.017.408-1.424.611-.407.203-.61.407-1.017.61h.203c.407 0 .814-.203 1.22-.203.408-.204.611-.407 1.018-.407v.814c-.407.203-.61.407-1.017.61-.61-.203-1.221 0-1.831 0m1.424 2.238c0-.203 0-1.424 1.22-2.645l.204-.203c.203.203.61.203.814.203l-.407.407c-.204.204-.61.61-.61 1.017v.204c.406-.204.61-.407 1.017-.61.203-.204.407-.407.61-.814.204 0 .407-.204.61-.204v.814c-.203.407-.61.61-.813 1.017-1.018.61-2.238.814-2.645.814m0 4.883c0-.204-.407-1.628.61-3.255.407-.61.61-1.018 1.017-1.628.407-.203.814-.407 1.221-.814 0 .204-.203.407-.203.814-.407.407-.61.814-.814 1.424l-.61 1.22v.204c.406-.203.61-.61 1.017-1.017.203-.203.203-.61.407-.814 0 .407.203.814.203.814v.204h.204l-.61 1.22c-.815 1.22-2.239 1.628-2.442 1.628m4.476-5.697c.203 0 .407 0 .813-.203 0 0 .204 0 .204-.204-.204.204-.204.407-.407.61-.814 1.425-1.831 1.832-2.034 1.832 0-.204-.407-1.424.203-2.849 0 0 .203-.203.203-.406.204.406.407.61.407.813-.203.204-.203.61-.203.814v.204c.407-.204.61-.407.814-.61M36.869 35.4c0-.203.203-.407.203-.814.204-.203.814-.407 1.221-.814-.203.407-.203.61-.407 1.018-.203.407-.203.813-.203 1.22v.204c.203-.407.407-.61.61-1.22.204-.408.407-1.018.407-1.425 0 .814.203 1.22.407 1.424 0 .407-.204.814-.407 1.017-.61 1.628-1.831 2.238-2.034 2.238.203-.203-.407-1.22.203-2.848m1.017 8.138c.61.203 1.017 0 1.017-.407v-.61c.204-.204.407-.407 1.018-.814.407-.204.813-.204.813-.204v1.018s-.406.203-.61.61c-.203.203-.203.61-.203.814a1.086 1.086 0 0 1-2.035-.407m5.697-2.441c.203-.61.407-1.018.407-1.221h.407c0 .407.203.61.406.814 0 .203.204.203.407.203 0 .204-.203.407-.407.61-.203.407-.61.61-.61.814-.407-.203-.814-.814-.61-1.22m5.29 4.679c-.61.61-1.018.61-1.018.61-.61 0-1.017.204-1.22.61-.204-1.017.813-1.424 1.424-1.83.203-.204.407-.407.407-.814.203 0 .406-.204.61-.407.203 0 .203-.204.407-.407 0 .203.203.61.203 1.017-.407.61-.61 1.017-.814 1.22m4.476.611s-.407 0-1.017-.61c-.407-.204-.407-.61-.407-1.017 0-.204 0-.814.204-1.018l.406.407c.204.204.61.407.61.407v-.203c0 .407.204.61.408.814.61.406 1.627.813 1.424 1.83-.407-.406-1.017-.61-1.628-.61m3.255-4.68c-.203-.203-.203-.406-.203-.61.407-.203.814-.61.814-1.22h.203c0 .203.204.61.407 1.22.204.407-.203 1.221-.407 1.425-.407-.204-.61-.407-.814-.814m4.476 2.441c0-.203-.203-.61-.203-.814-.204-.406-.61-.61-.61-.61s.203-.407 0-1.017c.203 0 .406 0 .813.203.61.407.814.61 1.018.814v.61c.203.407.406.61 1.017.407 0 1.018-1.424 1.018-2.035.407m-.813-10.376c0 .407.203.814.203 1.221.203.407.203.814.407 1.22v-.203-1.22-.204c.407.407.814.61.814.61h.203c.407 1.628-.203 2.645-.407 2.849-.203 0-1.22-.814-1.627-2.442 0-.406-.204-.61-.204-1.017.204 0 .407-.407.61-.814m-3.051-1.22c.203 0 .407 0 .61-.204 0 .61.204 1.018.61 1.424-.203.61-.61 1.018-1.017 1.425v-2.645h-.203m0 3.255c.203-.204.407-.204.61-.407 0 .814.407 2.238.61 2.848l-1.22-.61v-1.831m0 3.662v-1.628 1.628m4.883 1.017c.406.61.203 1.22.203 1.831 0-.203-.203-.407-.814-.61-.814-.407-1.22-.407-1.22-.407 0-.203 0-.407-.204-.61-.203-.407-.61-.814-.814-1.018.407-.203.814-.406 1.018-.61 1.017.204 1.424.61 1.83 1.424m-4.882-1.017c.203-.814 0-1.628 0-1.628l.814.204c.406.61 1.22.814 2.238.61-.204.204-.61.61-1.628.814-.814.203-1.22.203-1.424 0m0-12.41l-.204-1.221h-1.83c-.204-.407-.204-1.017 0-1.628.406.814 1.22 1.424 2.034 1.424 1.017 0 1.627-.61 1.627-.813.204.407.204 1.017-.203 1.424 0 .407-.61.814-1.424.814m2.034-10.58c.61 0 1.424.204 1.628.61.407.408.407.814.407 1.425-.814-.814-2.035-1.424-3.255-1.424h-.407c.407-.407.813-.61 1.627-.61m-1.83.813c0 1.017-.408 1.831-1.221 2.441v-.813c-.204-.814.813-1.424 1.22-1.628m-3.458 1.628c.407.61.407 1.017.407 1.424 0 .407-.204 1.017-.814 1.627-.61-.813-.61-1.017-.61-1.424 0-.61.406-1.017.61-1.22.203-.204.203-.407.407-.407m-2.035-.61c0 .203.204.406.204.61.203.407.406.61.406 1.22 0 .814-.61 1.425-.813 1.628-.61-.61-.814-1.017-.814-1.424 0-.61.61-1.424 1.017-2.035m-1.22 2.849l.203.203c.407.407.61 1.017.61 1.831 0 .407-.203.814-.407 1.22-.203.204-.203.408-.407.611 0-.203-.203-.407-.406-.61-.204-.407-.407-.814-.407-1.22 0-.815.407-1.222.61-1.832 0-.203.203-.203.203-.203m-1.22-2.849c.61.61 1.017 1.221 1.017 2.035 0 .407-.203.814-.814 1.424-.203-.203-.814-1.017-.814-1.628 0-.61.204-.813.407-1.22 0-.204 0-.407.204-.61m-2.035.61l.407.407c.407.406.61.61.61 1.22 0 .407-.203.61-.61 1.424-.61-.61-.814-1.017-.814-1.627 0-.407.204-1.017.407-1.424m-7.324-.407c0-.61.204-1.017.407-1.424.407-.407 1.017-.61 1.628-.61.61 0 1.22.203 1.424.61h-.407c-1.22 0-2.442.407-3.052 1.424m5.086 1.22c-.813-.61-1.22-1.424-1.22-2.44.203.203 1.22.813 1.22 1.627v.813m4.476 4.07c0 .203.204.203.204.406.203.407.61.814.61 1.628h-1.628v-.407c0-.61.61-1.424.814-1.628M48.67 21.16c.203.203.203.407.407.407.203.406.61.813.61 1.22 0 .407-.203.814-.61 1.22-.204.204-.204.408-.407.611 0-.203-.203-.203-.203-.407-.204-.407-.407-.813-.407-1.22-.204-.61.203-1.221.61-1.831m-.814 2.848c.407.61.814 1.22.814 1.83h-2.035c0-.61.407-1.22 1.221-1.83m-.203-1.22c0 .61-.204 1.016-.61 1.22-.204.203-.204.407-.408.61 0-.203-.203-.407-.203-.61-.203-.407-.203-.814-.203-1.22 0-.611.406-1.018.813-1.628l.204.203c.203.61.407 1.017.407 1.424m-1.831-6.103c.203 0 .203 0 0 0 .61.407 1.424 1.017 1.424 1.627 0 .61-.407 1.018-.407 1.221-.61-.61-1.017-1.017-1.017-1.424v-.61-.814m7.73 7.324c.611.61 1.221 1.22 1.221 1.83h-2.034c0-.813.407-1.423.814-1.83m-1.018 1.83h-1.627c0-.61.407-1.22.61-1.627 0-.203.204-.203.204-.203.203.203.813 1.017.813 1.627v.204m0-4.68c.407.611.814 1.018.814 1.832 0 .61-.203.813-.407 1.22 0 .204-.203.204-.203.407-.204-.203-.204-.407-.407-.61-.203-.407-.61-.61-.61-1.22 0-.611.203-1.018.61-1.221 0 0 .203-.204.203-.407m2.442 2.848c0 .203-.204.407-.204.61-.203-.203-.203-.407-.406-.61-.204-.407-.61-.61-.61-1.22 0-.408.406-.815.61-1.221l.203-.204c.407.407.814.814.814 1.628 0 .407-.204.61-.407 1.017m.61-6.104c0 .407-.407.814-1.017 1.425-.203-.204-.407-.61-.407-1.221 0-.61.814-1.22 1.22-1.424 0 0 .204 0 .204-.204v1.424m-2.034 13.631c.203 0 .407.204.407.204v.203h-.407v-.407m.61.407c0 .204 0 .204-.203.204v-.204h.203m-1.22 9.156l1.017 1.22c-.61.407-1.018 1.22-1.018 1.831-.203 0-.407-.203-.61-.203-.407-.407-.407-.814-.407-.814s.204-.203.407-1.017c.203-.61 0-1.017 0-1.017h.61m-3.865 2.034s0 .407-.407.814c0 0-.203.203-.407.203 0-.814-.61-1.627-1.22-1.83l.813-1.018h.407c0 .203-.203.61 0 1.017.407.61.814.814.814.814M45.414 35.4c0-1.22.814-4.476 2.441-2.848.407-.204 1.017-.407 1.017-.407l-.203-.814h.407l-.204-.407-.406-.203-.407.407-.814-.204.814-1.017h-.204l-1.017 1.22-.61-.203 1.017-1.22h-.204l-.813.813-.61-.407 1.22-1.22h-.204l-.813.813-.407-.406c.61-.61 1.83-1.425 1.83-1.425-.203-.61-.203-1.017 0-1.017l-.203-.61.204-.204.203.407c.407 0 .61.61.407.814 0 .204 0 .407.204.407.203 0 1.22.407 1.424.203l-.204-.203c-.407.203-.61 0-.203-.61s3.052-1.018 1.83 1.22h-.61c-.406 0 0 .61.407 1.221h.61l.408-.407h-.204l.814-.61c-.407-.204-.61-.204-.61-.204s1.22-.407 1.424-.407c-.204-.203-.407-.203-.407-.203s1.017-.407 1.628.61h.203v.204l.61.203-.407.407c.204.407 0 .814.204 1.017.203.204.203.814.203 1.018 0 .203 0 .813-1.017.406.204-.61-.814-.61-.61-1.424-.61.61.61 2.442.61 3.662h1.017c.814-.406 1.018.407.407.814 0 .814-.407 2.035-1.22 1.424l.406-.813.407.406c0-.406.204-1.017.407-1.017l-.203-.203c-.407.203-1.22.203-1.424.61 0 .407 0 .61.203.814.204 0 .407.407.204.814l.406 1.627.407.407h-.813v-.407s-.204-1.424-.407-1.424c-.204 0-.407-.203-.407-.814-.204-.203-.61-1.22-1.018-1.22-.406 0-.813.203-.813.203s-.204.204.407.204c.406.203.61.406.813.61-.203 0-1.017-.204-1.22 0l.203.61c.407-.203.61 1.017.61 1.017l.204.61 1.22-.203.204.407v.61h1.017c0-.203-.203-.61-.203-.61l-.204-.407 1.018-.203v.407h-.204c0 .203-.203.61-.203.61h.203v.407h-.203c-.204 0-.204.204-.204.407l.204.203c0 .204-.204.407-.204.407l-.203-.203c-.204 0-.61.203-.61.407l.203.203c0 .204-.203.204-.203.204l-1.018-.814c0 .203-.407.407-.814.203l-1.22 1.018c-.204 0-.204-.204-.204-.204l.204-.203c0-.204-.407-.204-.61-.204l-.204.204c-.203 0-.203-.204-.203-.204l.203-.203c0-.204-.61-.204-.61-.204l-.204.204c-.203 0-.203-.204 0-.204-.203 0-.407 0-.61-.203-.204 0-.204-.204-.204-.407-.61.407-3.662.814-2.238-1.831 0 .814 0 1.424.61 1.424.204.204.611.407 1.018 0 .204 0 .407-.203.61-.203-.203-.61.204-2.035 2.442-.407.203 0 .203.203.203.203 0 .204 1.22.814.814-.407v-.407l-.814-2.034c0 .203-.407.61-.61.814-.204 0-.204.203 0 .407.203.203.61.813.814 1.017.203.203.61.407.61.407v.407s-.407 0-.61-.204c0-.203-.204-.203-.204-.407 0 0-.203 0-.203-.203 0-.204-.407-.61-.407-.61s-.814-.407-.814-.61c0-.204.204-.204.204-.408 0-.203-.204-.407-.204-.407-.203 0-1.017.407-1.22.61 0 .204-.61 1.018-.407 1.832 0 .203.203.407.203.407s-.407.407-.814 0c0-.204.204-.61 0-.61 0 0-.203-.204 0-.408.204-.407.407-1.627.407-2.034 1.017-.204.204-1.831.407-2.238-.407.203-.407 1.831-1.017 2.238.203-.204 0-.814 0-.814s-.204.61-.61.814c.203-.204 0-.814 0-.814s-1.425.407-1.628.407m9.358-5.29c-.203-.407 0-.203-.406-.813 0 .406-.204.61.406.813m-.813 10.376L52.94 39.47v.203l1.018.814m-1.018-1.424l1.628.61-1.831-.813.203.203m0-.203h.814v-.204l-.814.204m0-.407l.814-.204v-.203l-.814.203v.204m-.203 1.017c.203-.203 0-1.017-.204-1.22.204.61.204 1.22.204 1.22m-4.883-.814c-.203 0-.407.204-.814.407.61-.203.814-.203.814-.407m.407-.814s-.203.204 0 .407h.204l-.204-.407m0 .61c-.203.204 0 .408 0 .408h.204s-.204-.204-.204-.407m.61-1.018c-.203 0-.406 0-.61.204l.204.203c0-.203.406-.407.406-.407m-.203 1.425v-.61s-.203-.204 1.22.203c-.61-.61-1.627-1.018-1.22.407m.203-.407c.204.203.61.203.61.203v-.203h-.61m1.628.203c-.407 0-1.424.204-2.034.61 1.017-.406 2.034-.61 2.034-.61m.407.204l-1.831.61 1.83-.61m.408.407l-1.424.813 1.424-.813m-.61 1.424l1.017-.814-.204-.204-.814 1.018m-3.255-12.207c-.203.814-.203 1.22.814 1.017v-.203c-.814.406-.814 0-.814-.814m1.628.203s-.407 0-.61.204v.203c.203-.203.61-.407.61-.407m-.204.814c.407.203.61 0 .61.407h.204c-.203-.61-.407-.407-.814-.407m.814-.61c.204.61.204 2.238 0 2.238v.203c.204-.203.407-1.424 0-2.441m1.017-.407c-.203.203 0 .203 0 0 .204 0 .407-.61.407-.61-.61-.61-.813-.204-1.017.406h.204s.203-.61.406-.61l.407.203c-.203.407-.407.61-.407.61m-.203 0l-.203-.203c0 .204 0 .204.203.204m-.61.203c.203.204.61.407.61.61-.203-.406-.407-.406-.61-.61m1.424 1.831h-.407v.61l.407-.203c.203.204.203-.203 0-.407m2.238-1.627c-.407-.204-.814 0-1.018.203h.204c-.204 0-.61.204-.61.407h.203l-.61.61h.203c-.203.204-.203.407-.203.61v.204c.61-1.22.813-2.034 1.83-2.034m-.203 2.441c-.407 0-1.22-.407-1.627-.61l-.204.203c.61.204 1.424.814 1.831.814v-.407m.204.61c-.204 0-1.221-.61-2.035-1.017v.204c.814.61 1.831 1.017 2.035.813m-.204 2.849h.204l.407-.814-.204-.204-.407.61-.203-.203h-.204l.407.61m-1.22-1.627c1.017-.203 1.424 0 1.627.204.204.203.204.203.407.203 0 0 0-.407-.203-.407 0-.203-.204-.203-.407-.203-.61-.204-1.221 0-1.424.203m-.407 0c-.407-.61-.61-1.22-.61-1.628h-.204c.203.814 0 .61-.204.407v.407h.204c.407.814.407 1.221 0 1.221v.203c.203 0 .407-.203.407-.61.407.814 0 1.017-.204 1.017v.204c.814 0 1.018-.61.61-1.22m-.406 1.83c0-.407 0-1.017-.204-1.22 0-.407-.407-1.832-.407-2.035v-.407l.204-.203c-.204.203-.407.203-.407 0 0 0 .407.61 0 .406-.407-.203-.61-.203 0 .204-.407 0-.61 0 0 .203.203.61.61 1.425.407 1.831.203.204.407.61.407 1.221m-.61 0l.61.814-3.052-7.528-.407-.203 2.848 6.917m-1.627.407c.203-.203.407-.203.61-.203.204.203.814.203 1.017.203v-.203c-.61 0-1.017 0-1.017-.204 0-.203-.203-.407 0-.407h.814v-.203h-1.017v-.407h.61v-.204c-.61.204-.61 0-.814-1.22h-.203c0 1.017.407 2.238 0 2.848m-4.883-8.341c-.814 0-1.424-.204-1.83-.814-.204-.407-.408-.814-.204-1.424.203.203.813.813 1.627.813.814 0 1.628-.406 2.035-1.22.203.61.203 1.017 0 1.627H43.99l.203 1.018m-.61 5.29c.203 0 .407 0 .61.203V35.4c-.407-.407-.814-.814-1.017-1.424.203-.407.407-1.017.407-1.628M40.938 41.3s-.407-.203-1.22.407c-.408.203-.611.407-.815.61 0-.61-.203-1.22.204-1.83.407-.611.814-1.221 1.83-1.425.204.204.611.407 1.018.61-.203.204-.61.61-.814 1.018-.203.203-.203.407-.203.61m2.441-.203l-1.017 1.017c0 .203-.203.203-.203.407-.204 0-.204.203-.407.203h-.407c0-.203-.204-.814 0-1.83.203-.611.814-1.018 1.017-1.222h.204c.61 0 1.017.204 1.424.204-.204.203-.407.61-.61 1.22m.203-5.9c.203.204.407.407.61.407v1.831l-1.22.61c.203-.61.61-2.034.61-2.847m.61 3.662v.61c-.203 0-.61.203-1.627 0-1.018-.203-1.425-.61-1.628-.814.814.407 1.628.204 2.238-.407.61-.203 1.017-.203 1.017-.203v.814m-2.441-4.07c0 .408-.204.611-.204 1.018-.407 1.627-1.424 2.238-1.627 2.441-.204-.203-.814-1.22-.407-2.848h.203s.407-.203.814-.61v.203c0 .407-.203.814 0 1.22v.204c.203-.407.407-.61.407-1.22.203-.407.203-.814.203-1.221v-.204c.204.407.407.814.61 1.018m-1.83-1.221c.203-.407.407-.61.407-.814.203.204.406.204.61.204h.203c-.407 1.424-1.424 1.83-1.627 2.034-.204-.203-.61-1.22-.204-2.645 0-.203.204-.407.204-.61v-.204c0 .407.203.814.407.814v1.221m2.238 0c.203-.407.407-.814.407-1.017v-.61s.203.203.406.203c.204 0 .204.203.407.203v.204c-.203 1.424-1.22 2.034-1.22 2.238-.204-.204-.61-.814-.61-2.035l.406-.407c.204-.203.407-.61.407-.814 0 0 0 .204.204.204 0 .203-.204.61-.204.814-.203.203-.203.61-.203 1.017M44.6 15.666c.203.203.61.203.61.406l.204.204v1.83c-.61-.406-1.424-1.22-1.831-1.83.203.203.407.203.61.203l.61.204-.203-1.017c0 .203 0 0 0 0m1.017 3.051c.61.407 1.017 1.017 1.017 1.628 0 .61-.203 1.017-.61 1.424-.203-.203-.61-1.017-.61-1.628v-.61c.203-.203.203-.407.203-.814m1.628-2.848c.203.61.203 1.017 0 1.628-.204-.204-1.017-1.018-1.628-1.425v-.406-.204c.204 0 .204.204.407.204l.61.203v-.407c.204.204.407.204.61.407m.408 0c.61.407 1.424 1.22 1.424 2.034 0 .407-.204.814-.61 1.221-.204-.203-.814-.61-.814-1.22v-.61c0-.204.203-.611.203-.815 0-.203-.203-.407-.203-.61m6.103 2.034c0 .61-.814 1.221-.814 1.221-.407-.61-.61-.814-.61-1.22 0-1.018.61-1.628 1.22-2.035v.61c0 .204 0 .61.204.814v.61m2.035-2.44s0 .203 0 0l-.204.61c-.61.406-1.22 1.22-1.627 1.424-.204-.407-.204-1.018 0-1.628.203 0 .61-.203.813-.407v.407l.61-.203s.204 0 .408-.204m.203 4.68c0 .61-.407 1.424-.61 1.627-.407-.407-.61-.814-.61-1.424s.61-1.22 1.017-1.628v.814c0 .203.203.407.203.61m1.831-4.069c-.407.814-1.22 1.628-1.83 1.831v-.61c0-.407-.204-.814 0-1.22l.203-.204c.203 0 .406-.203.61-.407v.204l-.204.61.61-.204c.204.204.408 0 .611 0m1.22 15.462c.204.204.408.407.611.814l.407.407c0 1.22-.407 1.831-.61 2.035-.204-.204-1.018-.814-1.221-2.238v-.204c.203 0 .203-.203.407-.203.203 0 .203-.204.407-.204v.61c0 .408.203.611.407 1.018v.203-.203-1.017c-.407-.407-.407-.61-.407-1.018m2.238.814c.203-.203.407-.61.407-1.017v.203c0 .204.203.407.203.61.407 1.425-.203 2.442-.203 2.646-.204 0-1.018-.61-1.628-2.035h.204s.203 0 .61-.203c.203.203.203.61.407.814v-.204c.203 0 .203-.407 0-.814m1.22 3.662c-.203-.407-.203-.813-.406-1.017.203-.203.406-.61.406-1.424.204.407.204 1.017.407 1.424l.61 1.22v-.203c0-.407 0-.813-.203-1.22-.203-.407-.203-.61-.407-1.018.407.407.814.61 1.221.814 0 .204.203.407.203.814.61 1.628 0 2.848 0 3.052-.203-.204-1.22-.814-1.83-2.442m2.44 9.562a.438.438 0 0 1-.406-.406c0-.204.203-.407.407-.407.203 0 .407.203.407.407a.438.438 0 0 1-.407.406m2.441-.61a.438.438 0 0 1-.407.407.438.438 0 0 1-.407-.407c0-.203.204-.407.407-.407.204 0 .407.204.407.407m1.831.407a.438.438 0 0 1-.407-.407c0-.203.204-.407.407-.407.204 0 .407.204.407.407a.438.438 0 0 1-.407.407m-3.255-10.986c-.203-.407-.61-.814-.814-1.424 0-.204 0-.407-.203-.814.407.407.814.61 1.22.814.407.61.814 1.017 1.221 1.627 1.017 1.831.814 3.052.61 3.255-.203 0-1.627-.407-2.644-2.034l-.61-1.22h.203v-.204s.203-.407.203-.814c.204.203.204.61.407.814.204.407.61.814 1.017 1.017v-.203c-.203 0-.406-.407-.61-.814m-2.238-2.238c.204-.204.407-.407.407-.814 0 .203.203.203.203.407.814 1.424.407 2.441.204 2.645-.204 0-1.424-.407-2.035-1.831-.203-.204-.203-.407-.406-.61l.203.203c.203.203.61.203.814.203.203.204.407.61.61.814v-.203c.204-.204 0-.407 0-.814m4.07 1.017c-.204 0-.204 0 0 0-.408 0-1.628 0-2.646-1.22-.203-.204-.61-.611-.814-1.018v-.814c.204.204.407.204.61.204.204.203.408.61.611.814.204.203.61.61 1.017.61h.204c-.204-.407-.407-.61-.61-1.017l-.407-.407c.203 0 .61-.204.813-.204l.204.204c.814 1.22 1.017 2.645 1.017 2.848m2.645-2.441c-.204 0-.61.203-1.22.203-.611 0-1.221-.203-1.628-.407-.407-.203-.61-.407-1.018-.61v-.814c.407.204.61.407 1.018.407.407.203.813.203 1.22.203h.204c-.204-.203-.61-.406-1.017-.61-.407-.203-.814-.407-1.425-.61-.203-.204-.203-.407-.406-.61.203 0 .406 0 .61-.204l1.83.61c1.222 1.018 1.628 2.238 1.832 2.442m1.628-3.662c-.204.203-1.221 1.017-2.645 1.017h-.407c-.814 0-1.424-.204-2.238-.204l.61-.61h1.017c.407 0 .61 0 1.018-.203h.203c-.407-.204-.814-.204-1.22-.407h-.814c0-.204-.204-.407-.61-.814h2.034c1.83 0 2.848 1.017 3.052 1.22m-2.645-3.051h-.61c-.611.203-1.221.203-1.832.407 0 0 0-.204.204-.204.203-.203.203-.407.203-.813.814-.204 1.424-.407 2.238-.61h.814c1.22 0 2.034.61 2.238.61-.204.203-1.017 1.22-2.645 1.627-1.017.204-1.831.204-2.848.204-.204-.204-.407-.204-.814-.407.203-.204.407-.204.407-.407.814 0 1.627-.204 2.238-.204.407 0 .814-.203 1.22-.407h-.203c-.203.204-.407.204-.61.204m-1.018 9.359l-.406-.407c0-.204 0-.61-.204-1.221.814.61 1.628 1.22 2.238 2.034 1.424 1.425 1.424 2.849 1.424 3.052-.407 0-1.627-.203-3.052-1.424-.61-.61-1.22-1.22-1.627-2.034.407.203.814.203 1.017.203h.204l.203.203c.407.407.814.61 1.22 1.018h.204v-.204l-1.22-1.22m2.237 11.596a.438.438 0 0 1-.407.407.438.438 0 0 1-.406-.407c0-.203.203-.407.406-.407.204 0 .407.204.407.407m-1.627-.814c-.204 0-.204 0 0 0v-2.645c1.424.204 2.441 1.425 2.645 2.849-.814 0-1.628-.204-2.238-.204h-.407m-.814-2.645c.203 0 .407.204.407.407a.438.438 0 0 1-.407.407.438.438 0 0 1-.407-.407c0-.407.204-.407.407-.407m0 1.018c.203 0 .407.203.407.407a.438.438 0 0 1-.407.406.438.438 0 0 1-.407-.406c0-.204.204-.407.407-.407m0 2.034c.203 0 .407.204.407.407a.438.438 0 0 1-.407.407.438.438 0 0 1-.407-.407c0-.203.204-.407.407-.407m0-1.017c.203 0 .407.203.407.407a.438.438 0 0 1-.407.407.438.438 0 0 1-.407-.407c0-.204.204-.407.407-.407m-1.017-3.459v-.407s.61.204.814.204c0-.204-.204-.814-.204-.814h.814s-.204.61-.204.814c.204 0 .814-.204.814-.204v.814s-.61-.203-.814-.203c0 .203.204.814.204.814h-.814s.204-.61.204-.814c-.204 0-.814.203-.814.203v-.407m-.814 4.883a.438.438 0 0 1-.407.407.438.438 0 0 1-.407-.407c0-.203.204-.407.407-.407.204 0 .407.204.407.407m1.017-3.459v2.645h-.407c-.813 0-1.627 0-2.238.204.204-1.424 1.221-2.442 2.645-2.849m-8.138 1.221c-.203-.203-.203-.407-.407-.61-.203-.407-.813-.814-1.017-1.017v-.204c0-.407-.203-.814-.407-1.017.407 0 .814 0 1.424-.204h.204c.203.204.814.814 1.017 1.221.204 1.22 0 1.831 0 1.831s.61.407.814.814c0 .203.203.407.203.407 0 .61 0 1.22.407 1.424-.61 0-1.017-.203-1.22-.61v.407c-.204-.204-.407-.204-.407-.407v-.814c0-.407 0-.814-.204-1.22.407 0 .61-.204.61-.204v-.204c-.203.407-.813.407-1.017.407m-4.679-.61s-.203 0-.203.203L53.348 41.3h2.645c0 .203.204.407.407.61.203.407.814.814.814 1.018.203.406.407 1.017 0 1.627-.204.407-.61.814-.814 1.017-.407 0-.61 0-.814-.203-.203 0-.814-.61-.814-1.22.407.203 1.628.61 1.628-.611.407-1.017-.61-1.831-1.831-1.424m-4.476 2.238c.204.203.407.814.407.814l.203-.204.204.204s.203-.61.407-.814c.203-.407.407-.407.407-.407s0 1.627-.407 2.034c-.61.814-.61.61-.61.61s0 .204-.61-.61c-.204-.407-.408-2.034-.408-2.034l.407.407m-1.22-2.035c-.204-.407-.204-.814 0-1.017h.61c.203.203.61.407.814.61.406.407.406.61.406.61s.204-.406.407-.61c.204-.203.61-.407 1.018-.61h.203c0 .203.203.61 0 1.017-.203.814-.61 1.017-.61 1.017l-.61.61c-.408.408-.408 1.018-.408 1.018s0-.61-.406-1.017l-.61-.61s-.611-.407-.815-1.018m-5.086 2.035c-.203-.61 0-1.221 0-1.628.204-.203.61-.61.814-1.017.203-.204.203-.407.407-.61.203.203.61.203.814.203h1.627l-.814.814h-.203c-1.424-.407-2.238.407-2.034 1.424.203 1.22 1.22.814 1.627.61 0 .61-.61 1.018-.814 1.221-.203 0-.407.203-.813.203l-.204-.203c.204-.407-.203-.61-.407-1.017m-1.017.61l-.814.407v-.203c0-.407 0-1.221.407-2.035.407-.814 1.017-1.424 1.22-1.628 0 .814.408 1.221.408 1.221s-.407.814-.204 1.628c-.203 0-.61.203-1.017.61m-1.017 0l-.407.407v-.407c-.204.407-.61.61-1.22.61.203-.203.406-.813.406-1.424 0-.203.203-.203.203-.407.204-.203.407-.61.61-.61h.815c-.204.407-.204.814-.204 1.424-.203.204-.203.407-.203.407M40.53 11.8c0-.203.814-.407 1.628-.407 1.017 0 1.627.204 1.627.407 0 .203-.814.407-1.627.407-.814 0-1.628-.204-1.628-.407m5.697 1.628c.203 0 .406.203.813.203h.814c-.203.203-.61.814-1.22.814.813.61 2.034 1.22 3.051 1.017-.203.204-.61.407-1.424.407-1.017 0-1.831-.61-2.441-1.424 0 0 .203.61.203 1.017a6.182 6.182 0 0 1-1.424-1.017s.407.61.61 1.424c-.407-.203-1.017-.61-1.627-1.017l.61 1.22c-.203 0-1.017-.406-1.627-1.017.203.204.406 1.017.813 1.424-.203-.203-.813-.407-1.424-.813-.61-.61-1.627-1.628-2.034-3.256.407 0 2.034.204 3.458.204 1.424 0 3.662 0 4.68-.407 0 .203-.61.814-1.831 1.22m-2.645.204h-.204c-.813 0-1.83-.203-1.83-.203 0 .406.203.61.406.813.407-.61 1.424-.61 1.628-.61M57.417 11.8c0-.203.814-.407 1.628-.407 1.017 0 1.627.204 1.627.407 0 .203-.813.407-1.627.407-.814 0-1.628-.204-1.628-.407m2.035 3.662c-.61.407-1.018.814-1.424.814.406-.407.61-1.22.813-1.424-.61.61-1.424 1.017-1.627 1.017l.407-1.22c-.407.406-1.221.813-1.628 1.017.204-.61.61-1.425.61-1.425a6.182 6.182 0 0 1-1.424 1.018c0-.407.204-1.018.204-1.018-.61.814-1.424 1.425-2.442 1.425-.61 0-1.22-.204-1.424-.407 1.017.203 2.238-.407 3.052-1.018-.61-.203-1.017-.61-1.22-.813h.813c.407 0 .61 0 .814-.204-1.22-.407-1.628-1.017-1.831-1.22 1.017.406 3.255.406 4.68.406 1.22 0 3.05-.203 3.458-.203-.204 1.627-1.22 2.645-1.831 3.255m-1.221-2.034h-.203s1.017 0 1.627.61c.204-.204.407-.407.407-.814-.203 0-1.017.204-1.831.204"/>
    </g>
</svg>
